<?xml version="1.0" standalone="no"?><!DOCTYPE svg PUBLIC "-//W3C//DTD SVG 1.1//EN" "http://www.w3.org/Graphics/SVG/1.1/DTD/svg11.dtd"><svg t="1528094433793" class="icon" style="" viewBox="0 0 1024 1024" version="1.1" xmlns="http://www.w3.org/2000/svg" p-id="1868" xmlns:xlink="http://www.w3.org/1999/xlink" width="32" height="32"><defs><style type="text/css"></style></defs><path d="M898.104 169h-111.52a21.848 21.848 0 0 0-21.832 21.952 21.856 21.856 0 0 0 21.832 21.952h111.512v737.168H124.68V212.84h113.216a21.96 21.96 0 0 0 21.952-21.952 21.896 21.896 0 0 0-21.952-21.888H124.68a43.88 43.88 0 0 0-43.84 43.84v737.168a43.864 43.864 0 0 0 43.84 43.784h773.472a43.856 43.856 0 0 0 43.784-43.784V212.84c-0.056-24.184-19.712-43.84-43.832-43.84z m-560.752 45.192h348.024c12.12 0 21.944-9.832 21.944-21.888s-9.832-21.952-21.944-21.952h-67.2c0.288-2.944 0.768-5.88 0.768-8.888 0-59.32-48.256-107.568-107.576-107.568-59.264 0-107.576 48.256-107.576 107.568 0 3.064 0.472 5.944 0.824 8.888h-67.264c-12.12 0-21.952 9.832-21.952 21.952s9.832 21.888 21.952 21.888z m110.28-52.728c0-35.128 28.6-63.728 63.728-63.728 35.184 0 63.664 28.6 63.664 63.728 0 3.12-0.704 5.944-1.12 8.888h-125.04c-0.472-2.944-1.232-5.768-1.232-8.888zM291.04 428.632h440.752a21.936 21.936 0 0 0 21.888-21.952 21.88 21.88 0 0 0-21.888-21.888H291.04a21.896 21.896 0 0 0-21.952 21.888 21.952 21.952 0 0 0 21.952 21.952z m0 188.424h440.752a21.968 21.968 0 0 0 21.888-21.944 21.976 21.976 0 0 0-21.888-21.952H291.04a21.944 21.944 0 1 0 0 43.896z m0 188.368h440.752c12.064 0 21.888-9.888 21.888-21.952s-9.832-21.944-21.888-21.944H291.04a21.944 21.944 0 1 0 0 43.896z" p-id="1869"></path></svg>