<?xml version="1.0" standalone="no"?><!DOCTYPE svg PUBLIC "-//W3C//DTD SVG 1.1//EN" "http://www.w3.org/Graphics/SVG/1.1/DTD/svg11.dtd"><svg t="1528094353290" class="icon" style="" viewBox="0 0 1024 1024" version="1.1" xmlns="http://www.w3.org/2000/svg" p-id="2621" xmlns:xlink="http://www.w3.org/1999/xlink" width="32" height="32"><defs><style type="text/css"></style></defs><path d="M298.807457 957.912839c-33.769105 0-61.241806-27.575032-61.241806-61.471027L237.56565 384.239198l-9.873882 0 0-66.045205 9.873882 0 0-3.344165-9.873882 0 0-65.010643 9.873882 0L237.56565 128.540561c0-33.893948 27.472702-61.46898 61.241806-61.46898l424.328241 0c33.769105 0 61.241806 27.575032 61.241806 61.46898l0 767.902274c0 33.895995-27.472702 61.471027-61.241806 61.471027L298.807457 957.913862zM298.807457 104.7139c-13.011338 0-23.597441 10.688433-23.597441 23.826662l0 767.902274c0 13.138228 10.586103 23.826662 23.597441 23.826662l424.328241 0c13.011338 0 23.598464-10.689457 23.598464-23.826662L746.734162 128.540561c0-13.138228-10.586103-23.826662-23.598464-23.826662L298.807457 104.7139zM255.653611 374.117676l0-45.804209-7.967462 0 0 45.804209L255.653611 374.117676zM255.653611 304.728306l0-44.768623-7.967462 0 0 44.768623L255.653611 304.728306zM513.212618 895.985418c-29.348422 0-53.225225-23.87578-53.225225-53.224202s23.876804-53.224202 53.225225-53.224202c29.348422 0 53.224202 23.87578 53.224202 53.224202S542.560016 895.985418 513.212618 895.985418zM513.212618 813.418934c-16.179494 0-29.343305 13.163811-29.343305 29.343305 0 16.179494 13.162788 29.343305 29.343305 29.343305 16.179494 0 29.343305-13.163811 29.343305-29.343305C542.553876 826.582745 529.390066 813.418934 513.212618 813.418934zM420.325068 191.604876l0-38.083363 174.789908 0 0 38.083363L420.325068 191.604876z" p-id="2622"></path></svg>