<?xml version="1.0" standalone="no"?><!DOCTYPE svg PUBLIC "-//W3C//DTD SVG 1.1//EN" "http://www.w3.org/Graphics/SVG/1.1/DTD/svg11.dtd"><svg t="1528094331147" class="icon" style="" viewBox="0 0 1024 1024" version="1.1" xmlns="http://www.w3.org/2000/svg" p-id="1924" xmlns:xlink="http://www.w3.org/1999/xlink" width="32" height="32"><defs><style type="text/css"></style></defs><path d="M728 248l-448 0c-44.192 0-80 35.808-80 80l0 288c0 44.192 35.808 80 80 80l208 0 0 64-176 0c-8.848 0-16 7.152-16 16s7.152 16 16 16l384 0c8.848 0 16-7.152 16-16s-7.152-16-16-16l-176 0 0-64 208 0c44.192 0 80-35.808 80-80l0-288C808 283.808 772.192 248 728 248zM776 616c0 26.496-21.488 48-48 48l-448 0c-26.512 0-48-21.504-48-48l0-288c0-26.512 21.488-48 48-48l448 0c26.512 0 48 21.488 48 48L776 616z" p-id="1925"></path></svg>