<?xml version="1.0" standalone="no"?><!DOCTYPE svg PUBLIC "-//W3C//DTD SVG 1.1//EN" "http://www.w3.org/Graphics/SVG/1.1/DTD/svg11.dtd"><svg t="1528094500572" class="icon" style="" viewBox="0 0 1024 1024" version="1.1" xmlns="http://www.w3.org/2000/svg" p-id="3669" xmlns:xlink="http://www.w3.org/1999/xlink" width="32" height="32"><defs><style type="text/css"></style></defs><path d="M938.666667 217.6H85.333333A21.333333 21.333333 0 0 0 64 238.933333v554.666667a21.333333 21.333333 0 0 0 21.333333 21.333333h853.333334a21.333333 21.333333 0 0 0 21.333333-21.333333V238.933333a21.333333 21.333333 0 0 0-21.333333-21.333333z m-123.733334 426.666667v-264.533334h102.4v264.533334h-102.4z m-708.266666-384h665.6v512h-665.6v-512z" p-id="3670"></path><path d="M655.394133 366.267733a21.333333 21.333333 0 0 0-30.165333 0.196267L386.875733 607.684267 274.500267 495.505067c-8.328533-8.328533-21.845333-8.183467-30.165334 0.1536a21.649067 21.649067 0 0 0 0.017067 30.429866l127.5392 127.931734c4.002133 4.002133 9.4208 7.304533 15.0784 7.304533h0.068267c5.674667 0 11.1104-3.370667 15.104-7.3984l253.431466-257.501867a21.316267 21.316267 0 0 0-0.1792-30.1568z" p-id="3671"></path></svg>