<?xml version="1.0" standalone="no"?>
<!DOCTYPE svg PUBLIC "-//W3C//DTD SVG 1.1//EN" "http://www.w3.org/Graphics/SVG/1.1/DTD/svg11.dtd" >
<!--
2013-9-30: Created.
-->
<svg>
<metadata>
Created by iconfont
</metadata>
<defs>

<font id="element-icons" horiz-adv-x="1024" >
  <font-face
    font-family="element-icons"
    font-weight="500"
    font-stretch="normal"
    units-per-em="1024"
    ascent="896"
    descent="-128"
  />
    <missing-glyph />
    
    <glyph glyph-name="x" unicode="x" horiz-adv-x="1001"
d="M281 543q-27 -1 -53 -1h-83q-18 0 -36.5 -6t-32.5 -18.5t-23 -32t-9 -45.5v-76h912v41q0 16 -0.5 30t-0.5 18q0 13 -5 29t-17 29.5t-31.5 22.5t-49.5 9h-133v-97h-438v97zM955 310v-52q0 -23 0.5 -52t0.5 -58t-10.5 -47.5t-26 -30t-33 -16t-31.5 -4.5q-14 -1 -29.5 -0.5
t-29.5 0.5h-32l-45 128h-439l-44 -128h-29h-34q-20 0 -45 1q-25 0 -41 9.5t-25.5 23t-13.5 29.5t-4 30v167h911zM163 247q-12 0 -21 -8.5t-9 -21.5t9 -21.5t21 -8.5q13 0 22 8.5t9 21.5t-9 21.5t-22 8.5zM316 123q-8 -26 -14 -48q-5 -19 -10.5 -37t-7.5 -25t-3 -15t1 -14.5
t9.5 -10.5t21.5 -4h37h67h81h80h64h36q23 0 34 12t2 38q-5 13 -9.5 30.5t-9.5 34.5q-5 19 -11 39h-368zM336 498v228q0 11 2.5 23t10 21.5t20.5 15.5t34 6h188q31 0 51.5 -14.5t20.5 -52.5v-227h-327z" />
    

    
    <glyph glyph-name="bill" unicode="&#42498;" d="M316.3 896c-35.4 0-64-28.6-64-64l0-64L743 768c35.4 0 64-28.6 64-64l0-661.3 64 0c35.4 0 64 28.6 64 64L935 832c0 35.4-28.6 64-64 64L316.3 896 316.3 896zM707.7 725.3L153 725.3l0 0c-35.4 0-64-28.6-64-64L89-64c0-35.4 28.6-64 64-64l554.7 0c35.4 0 64 28.6 64 64L771.7 661.3C771.7 696.7 743.1 725.3 707.7 725.3zM575.5 249.10000000000002c17.6 0 30-13.4 30-29.8 0-16.4-12.4-28-30-28L448.2 191.29999999999995l0-79.7c0-13.9-13.7-25.2-30.6-25.2-16.8 0-28.7 11.3-28.7 25.2l0 79.7L287.1 191.29999999999995c-17.6 0-31.9 11.5-31.9 28 0 16.4 14.3 29.8 31.9 29.8l101.8 0 0 57.7L287.1 306.79999999999995c-17.6 0-31.9 11.5-31.9 28 0 16.4 14.3 29.8 31.9 29.8l83.6 0-93.1 100.7c-8.4 9.2-5 25.6 7.7 36.5 12.6 10.9 29.6 12.3 38 3.1l95.2-104.9 93.4 104.9c8.4 9.2 25.4 7.8 38-3.1 12.6-10.9 16-27.3 7.7-36.5l-93.1-100.7 109.1 0c17.6 0 31.9-13.3 31.9-29.8 0-16.5-14.3-28-31.9-28L448.2 306.79999999999995l0-57.7L575.5 249.10000000000002z"  horiz-adv-x="1024" />

    
    <glyph glyph-name="selected" unicode="&#42503;" d="M393.81005281 43.00303594000002c-10.84160906 0-21.67746281 4.38134906-29.94705562 13.14404812L44.40630875 394.61136562c-16.54206469 17.52539812-16.54206469 45.93269719 0 63.45617625 16.53918656 17.52443813 43.35300656 17.52443813 59.89123313 0l289.51251093-306.73667249L922.88462 711.853875c16.53918656 17.52539812 43.35684375 17.52539812 59.89890844 0 16.53343031-17.52252 16.53343031-45.93365719-0.00671531-63.45425812L423.75710844 56.14708406c-8.26959281-8.76269906-19.11120281-13.14404812-29.94705563-13.14404812m0 0z"  horiz-adv-x="1027" />

    
    <glyph glyph-name="todo-approve-refund" unicode="&#59175;" d="M800 461.376A256.096 256.096 0 0 0 704-32a256 256 0 1 0 96 493.376V576h-64V768H160v-704h256v-64h160H160a64 64 0 0 0-64 64V768a64 64 0 0 0 64 64h576a64 64 0 0 0 64-64v-306.624zM256 672h384a32 32 0 0 0 0-64H256a32 32 0 1 0 0 64z m0-128h192a32 32 0 0 0 0-64H256a32 32 0 0 0 0 64z m0-128h128a32 32 0 0 0 0-64H256a32 32 0 0 0 0 64z m448-384a192 192 0 1 1 0 384 192 192 0 0 1 0-384z m-96 224h192a32 32 0 0 0 0-64h-192a32 32 0 0 0 0 64z"  horiz-adv-x="1024" />

    
    <glyph glyph-name="todo-approve-ask-lea" unicode="&#59176;" d="M640 256c-56.064 0-107.872 16.736-152.128 44.448a161.952 161.952 0 0 0-28.032-33.504 287.68 287.68 0 0 0 178.4-243.968 15.52 15.52 0 0 0 1.76-6.976v-32a16 16 0 0 0-16-16h-544a16 16 0 0 0-16 16v32c0 2.528 0.704 4.832 1.76 6.976a287.52 287.52 0 0 0 178.048 243.808A158.976 158.976 0 0 0 192 384a160 160 0 0 0 320 0c0-22.784-4.928-44.384-13.504-64H512v40.32A222.784 222.784 0 0 1 640 320a224 224 0 1 1-224 224h-64a288 288 0 0 0 288 288 288 288 0 0 0 288-288 288 288 0 0 0-288-288zM130.56 32h442.88c-15.552 108.512-108.608 192-221.44 192s-205.888-83.488-221.44-192zM352 480a96 96 0 1 1 0-192 96 96 0 0 1 0 192z m240 64H640V656a16 16 0 0 0 16 16h32a16 16 0 0 0 16-16v-160a16 16 0 0 0-16-16h-96a16 16 0 0 0-16 16v32a16 16 0 0 0 16 16z"  horiz-adv-x="1024" />

    
    <glyph glyph-name="todo-approve-registe" unicode="&#59177;" d="M831.99999969 465.63555563c22.11555562-22.25777813 35.55555562-51.55555594 35.55555562-83.62666688 0-35.69777812-16.63999969-76.19555531-43.44888843-107.27111062C903.46333344 240.39111093999998 959.34000031 167.35666688000003 971.73333313 81.77777812H899.55555594c-16.96666688 82.72777781-89.77222219 142.11555562-174.22222219 142.11555563-84.45 0-157.25555531-59.38888875-174.22222219-142.11555562h-72.17777812c12.39333375 85.57777781 68.26999969 158.61333375 147.62666625 192.96C599.75111094 305.77777781 583.11111125 346.31111156 583.11111125 382.00888875 583.11111125 451.84000031 646.75555531 508.44444469 725.33333375 508.44444469c42.48888844 0 80.60444437-16.56888844 106.66666594-42.80888906V579.55555594h-71.11111125V792.88888875H120.88888906v-782.22222187h284.44444407v-71.11111125h71.11111125H120.88888906c-39.27333375 0-71.11111125 31.8377775-71.11111125 71.11111125V792.88888875C49.77777781 832.1622225 81.61555531 864 120.88888906 864h639.99999938c39.27333375 0 71.11111125-31.8377775 71.11111125-71.11111125v-327.25333312zM227.55555594 686.22222188h426.66666656c19.63666687 0 35.55555562-15.91888875 35.55555562-35.55555563 0-19.63666687-15.91888875-35.55555562-35.55555562-35.55555469H227.55555594c-19.63666687 0-35.55555562 15.91888875-35.55555563 35.55555469 0 19.63666687 15.91888875 35.55555562 35.55555563 35.55555562z m0-142.22222157h213.33333281c19.63666687 0 35.55555562-15.91888875 35.55555563-35.55555562 0-19.63666687-15.91888875-35.55555562-35.55555563-35.55555563H227.55555594c-19.63666687 0-35.55555562 15.91888875-35.55555563 35.55555563 0 19.63666687 15.91888875 35.55555562 35.55555563 35.55555562z m0-142.2222225h142.22222156c19.63666687 0 35.55555562-15.91888875 35.55555562-35.55555562 0-19.63666687-15.91888875-35.55555562-35.55555562-35.55555563H227.55555594c-19.63666687 0-35.55555562 15.91888875-35.55555563 35.55555563 0 19.63666687 15.91888875 35.55555562 35.55555563 35.55555562z m251.11111031-319.99999969h493.33333406c1.48111125-9.87222187 2.22222187-21.35333344 2.22222188-34.44444468 0-19.63666687-15.91888875-35.55555562-35.55555563-35.55555563H512c-19.63666687 0-35.55555562 15.91888875-35.55555562 35.55555563 0 13.09111125 0.74111156 24.57222188 2.22222187 34.44444468z m33.33333375-106.66666687h426.66666656c19.63666687 0 35.55555562-15.91888875 35.55555563-35.55555563 0-19.63666687-15.91888875-35.55555562-35.55555563-35.55555562H512c-19.63666687 0-35.55555562 15.91888875-35.55555562 35.55555562 0 19.63666687 15.91888875 35.55555562 35.55555562 35.55555563z m213.33333375 319.99999969c39.27333375 0 71.11111125 31.8377775 71.11111031 71.11111125 0 39.27333375-31.8377775 71.11111125-71.11111031 71.11111125-39.27333375 0-71.11111125-31.8377775-71.11111125-71.11111125 0-39.27333375 31.8377775-71.11111125 71.11111125-71.11111125z"  horiz-adv-x="1024" />

    
    <glyph glyph-name="todo-audition" unicode="&#59178;" d="M224.01504 288A160 160 0 1 0 224.01504 608a160 160 0 0 0 0-320z m0 64a96 96 0 1 1 0 192 96 96 0 0 1 0-192zM480.01504 32a32 32 0 0 0-32-32H64.01504a32 32 0 0 0-32 32H8.07904a256 256 0 1 0 495.872 0H480.01504z m-48 32c10.304 19.584 16 41.248 16 64 0 88.352-85.952 160-192 160s-192-71.648-192-160c0-22.752 5.696-44.416 16-64h352zM455.85504 160H960.01504a64 64 0 0 1 64 64V672a64 64 0 0 1-64 64H256.01504a64 64 0 0 1-64-64v-104.064A256.448 256.448 0 0 0 256.01504 576V672h704v-448H493.39104a255.808 255.808 0 0 0-37.536-64zM641.93504 439.424l-67.84 67.904a32 32 0 0 1-45.248-45.248l90.496-90.56a31.904 31.904 0 0 1 45.248 0l158.4 158.4a32 32 0 1 1-45.28 45.28l-135.744-135.776z"  horiz-adv-x="1024" />

    
    <glyph glyph-name="todo-check-homework" unicode="&#59179;" d="M832 338.75199999999995l53.024 53.024a32 32 0 1 1-45.248 45.248l-7.776-7.776V544h-64V736H192v-704h256v-64h160H192a64 64 0 0 0-64 64V736a64 64 0 0 0 64 64h576a64 64 0 0 0 64-64v-306.752l-309.024-309.024a32 32 0 1 1 45.248-45.248L832 338.75199999999995V288v50.752zM288 640h384a32 32 0 0 0 0-64H288a32 32 0 1 0 0 64z m0-160h320a32 32 0 0 0 0-64H288a32 32 0 0 0 0 64z m0-160h192a32 32 0 0 0 0-64H288a32 32 0 0 0 0 64z m352-288h192v-64h-192v64z"  horiz-adv-x="1024" />

    
    <glyph glyph-name="todo-check-attendanc" unicode="&#59180;" d="M959.84 572.288l-72.704-41.984a158.912 158.912 0 0 1-31.936 55.488l72.64 41.92a16 16 0 0 0 21.856-5.856l16-27.712a16 16 0 0 0-5.856-21.856zM736 384a96 96 0 1 0 0 192 96 96 0 0 0 0-192z m0 128a32 32 0 1 1 0-64 32 32 0 0 1 0 64z m-32 124.768V720a16 16 0 0 0 16 16h32a16 16 0 0 0 16-16v-83.232a159.616 159.616 0 0 1-64 0z m-181.696-14.912a16 16 0 0 0 21.856 5.856l72.64-41.92a158.912 158.912 0 0 1-31.936-55.488l-72.704 41.984a16 16 0 0 0-5.856 21.856l16 27.712z m0-283.712l-16 27.712a16 16 0 0 0 5.856 21.856l72.704 41.984c6.912-20.736 17.728-39.488 31.936-55.456l-72.64-41.952a16 16 0 0 0-21.856 5.856zM544 144v-32a16 16 0 0 0-16-16h-288a16 16 0 0 0-16 16v32a16 16 0 0 0 16 16h288a16 16 0 0 0 16-16zM240 416a16 16 0 0 0-16 16v32a16 16 0 0 0 16 16h96a16 16 0 0 0 16-16v-32a16 16 0 0 0-16-16h-96z m176-112v-32a16 16 0 0 0-16-16h-160a16 16 0 0 0-16 16v32a16 16 0 0 0 16 16h160a16 16 0 0 0 16-16z m304-80a16 16 0 0 0-16 16v83.232a159.616 159.616 0 0 1 64 0V240a16 16 0 0 0-16-16h-32zM159.008 32h537.984v96H768v-96a64 64 0 0 0-64-64H160a64 64 0 0 0-64 64V736a64 64 0 0 0 64 64h480v-64H159.008v-704z m800.832 355.712a16 16 0 0 0 5.856-21.856l-16-27.712a16 16 0 0 0-21.856-5.856l-72.64 41.952a158.496 158.496 0 0 1 31.936 55.456l72.704-41.984z"  horiz-adv-x="1024" />

    
    <glyph glyph-name="todo-class-schedule" unicode="&#59181;" d="M704 704h160a64 64 0 0 0 64-64v-512a64 64 0 0 0-64-64H160a64 64 0 0 0-64 64V640a64 64 0 0 0 64 64h160V736a32 32 0 0 0 64 0v-32h256V736a32 32 0 0 0 64 0v-32z m0-64v-32a32 32 0 0 0-64 0V640h-256v-32a32 32 0 0 0-64 0V640H160v-512h704V640h-160zM288 480h64v-64H288v64z m192 0h64v-64h-64v64z m192 0h64v-64h-64v64zM288 320h64v-64H288v64z m192 0h64v-64h-64v64z m192 0h64v-64h-64v64z"  horiz-adv-x="1024" />

    
    <glyph glyph-name="todo-birthday" unicode="&#59182;" d="M944-32h-864a16 16 0 0 0-16 16v36a16 16 0 0 0 16 16H160V416a64 64 0 0 0 64 64h576a64 64 0 0 0 64-64v-380h80a16 16 0 0 0 16-16V-16a16 16 0 0 0-16-16zM800 412H224v-376h576v376zM304 256h96a16 16 0 0 0 16-16v-32a16 16 0 0 0-16-16h-96a16 16 0 0 0-16 16v32a16 16 0 0 0 16 16z m160 64h96a16 16 0 0 0 16-16v-32a16 16 0 0 0-16-16h-96a16 16 0 0 0-16 16v32a16 16 0 0 0 16 16z m160-64h96a16 16 0 0 0 16-16v-32a16 16 0 0 0-16-16h-96a16 16 0 0 0-16 16v32a16 16 0 0 0 16 16z m64 288h-32a16 16 0 0 0-16 16v160a16 16 0 0 0 16 16h32a16 16 0 0 0 16-16v-160a16 16 0 0 0-16-16z m0 224h-32a16 16 0 0 0-16 16v32a16 16 0 0 0 16 16h32a16 16 0 0 0 16-16v-32a16 16 0 0 0-16-16z m-160-224h-32a16 16 0 0 0-16 16v160a16 16 0 0 0 16 16h32a16 16 0 0 0 16-16v-160a16 16 0 0 0-16-16z m0 224h-32a16 16 0 0 0-16 16v32a16 16 0 0 0 16 16h32a16 16 0 0 0 16-16v-32a16 16 0 0 0-16-16z m-160-224h-32a16 16 0 0 0-16 16v160a16 16 0 0 0 16 16h32a16 16 0 0 0 16-16v-160a16 16 0 0 0-16-16z m0 224h-32a16 16 0 0 0-16 16v32a16 16 0 0 0 16 16h32a16 16 0 0 0 16-16v-32a16 16 0 0 0-16-16z"  horiz-adv-x="1024" />

    
    <glyph glyph-name="todo-comment" unicode="&#59183;" d="M608 192h256V640H160v-448h256l96-96v48V96l96 96z m32-64l-128-128v64-64l-128 128H160a64 64 0 0 0-64 64V640a64 64 0 0 0 64 64h704a64 64 0 0 0 64-64v-448a64 64 0 0 0-64-64h-224zM320 448h64v-64h-64v64z m160 0h64v-64h-64v64z m160 0h64v-64h-64v64z"  horiz-adv-x="1024" />

    
    <glyph glyph-name="todo-make-up-lesson" unicode="&#59184;" d="M832 96l-288-128c-11.712 0-22.56 3.392-32 8.864A63.584 63.584 0 0 0 480-32l-288 128a64 64 0 0 0-64 64V768a64 64 0 0 0 64 64l288-128c11.712 0 22.56-3.392 32-8.864A63.584 63.584 0 0 0 544 704l288 128a64 64 0 0 0 64-64v-608a64 64 0 0 0-64-64zM480 640L192 768v-608l288-128V640z m352 128l-288-128v-608l288 128V768z m-240-224l96 32a16 16 0 0 0 16-16v-32a16 16 0 0 0-16-16l-96-32a16 16 0 0 0-16 16v32a16 16 0 0 0 16 16z m0-160l96 32a16 16 0 0 0 16-16v-32a16 16 0 0 0-16-16l-96-32a16 16 0 0 0-16 16v32a16 16 0 0 0 16 16z m0-160l160 64a16 16 0 0 0 16-16v-32a16 16 0 0 0-16-16l-160-64a16 16 0 0 0-16 16v32a16 16 0 0 0 16 16z m-320 64l160-64a16 16 0 0 0 16-16v-32a16 16 0 0 0-16-16l-160 64a16 16 0 0 0-16 16v32a16 16 0 0 0 16 16z m160 32l-96 32a16 16 0 0 0-16 16v32a16 16 0 0 0 16 16l96-32a16 16 0 0 0 16-16v-32a16 16 0 0 0-16-16z m0 160l-96 32a16 16 0 0 0-16 16v32a16 16 0 0 0 16 16l96-32a16 16 0 0 0 16-16v-32a16 16 0 0 0-16-16z"  horiz-adv-x="1024" />

    
    <glyph glyph-name="todo-first-visit" unicode="&#59185;" d="M688 320a111.68 111.68 0 0 1-110.4-96L512 226.20799999999997c-126.24 15.776-224 123.264-224 253.792 0 22.144 3.104 43.52 8.384 64l23.616 11.2a111.68 111.68 0 0 1 64 100.8 112 112 0 1 1-224 0c0-5.472 0.864-10.72 1.6-16h3.168A479.68 479.68 0 0 1 160 576c0-265.088 214.912-480 480-480 10.784 0 21.44 0.48 32 1.312 11.744 0.992 21.92 2.112 32 3.456v-3.168a111.68 111.68 0 0 1 96 110.4 112 112 0 0 1-112 112z m0-288c-5.472 0-10.656 1.12-16 1.6-10.656-0.256-21.152-1.6-32-1.6-300.448 0-544 243.552-544 544 0 16.48 1.568 32.544 3.104 48.608A172 172 0 0 0 96 656a176 176 0 1 0 352 0c0-67.328-38.272-124.896-93.888-154.336-0.928-7.136-2.112-14.24-2.112-21.664 0-102.24 80.128-184.992 180.864-190.88C562.016 345.376 620.192 384 688 384a176 176 0 1 0 0-352z m93.984 529.632l-30.656 0.672a16.192 16.192 0 0 0-15.648 15.68l-1.44 63.008-114.112-114.144a16 16 0 0 0-22.624 0l-22.656 22.656a16 16 0 0 0 0 22.624l114.144 114.112-63.008 1.44a16.192 16.192 0 0 0-15.68 15.648l-0.672 30.656a14.496 14.496 0 0 0 14.976 14.976l153.248-3.424a16.224 16.224 0 0 0 15.68-15.68l3.424-153.248a14.496 14.496 0 0 0-14.976-14.976z"  horiz-adv-x="1024" />

    
    <glyph glyph-name="todo-new-resource" unicode="&#59186;" d="M925.984 96h-80v-80a16 16 0 0 0-16-16h-32a16 16 0 0 0-16 16V96h-80a16 16 0 0 0-16 16v32a16 16 0 0 0 16 16h80v80a16 16 0 0 0 16 16h32a16 16 0 0 0 16-16V160h80a16 16 0 0 0 16-16v-32a16 16 0 0 0-16-16z m-395.616 205.504L700 0h-19.168c-23.712-36.512-127.008-64-250.848-64-123.84 0-227.136 27.488-250.848 64H160l175.296 311.68A271.872 271.872 0 0 0 445.984 832a272 272 0 0 0 272-272c0-120.736-78.72-222.944-187.616-258.496zM429.984 0h0.032-0.064 0.032z m-160 32h320l-142.272 256.096-1.728-0.096c-11.04 0-21.888 0.864-32.608 2.144L269.984 32z m176 736a208 208 0 1 1 0-416 208 208 0 0 1 0 416z m0-352a112 112 0 0 0-112 112c0 3.648 0.608 7.136 1.088 10.656-0.32 1.824-1.088 3.456-1.088 5.344a32 32 0 0 0 64 0h3.232a46.88 46.88 0 0 1-3.232-16 48 48 0 0 1 96 0c0 5.664-1.408 10.944-3.232 16h3.232a32 32 0 0 0 64 0c0-1.888-0.768-3.52-1.088-5.344 0.48-3.52 1.088-7.008 1.088-10.656a112 112 0 0 0-112-112z"  horiz-adv-x="1024" />

    
    <glyph glyph-name="todo-wait-follow" unicode="&#59187;" d="M800-64H224a64 64 0 0 0-64 64V768a64 64 0 0 0 64 64h576a64 64 0 0 0 64-64v-768a64 64 0 0 0-64-64z m0 832H224v-768h576V768z m-32-640H256V736h512v-608zM704 672H320v-480h384V672z m-192-352a32 32 0 1 0 0-64 32 32 0 0 0 0 64z m16 32h-32a16 16 0 0 0-16 16v224a16 16 0 0 0 16 16h32a16 16 0 0 0 16-16v-224a16 16 0 0 0-16-16z m-96-256h160a16 16 0 0 0 16-16v-32a16 16 0 0 0-16-16h-160a16 16 0 0 0-16 16v32a16 16 0 0 0 16 16z"  horiz-adv-x="1024" />

    
    <glyph glyph-name="todo-today-follow" unicode="&#59188;" d="M800-64H224a64 64 0 0 0-64 64V768a64 64 0 0 0 64 64h576a64 64 0 0 0 64-64v-768a64 64 0 0 0-64-64z m0 832H224v-768h576V768z m-32-640H256V736h512v-608zM704 672H320v-480h384V672z m-289.856-213.376a16.768 16.768 0 0 0 23.584 0l46.816-46.368 101.696 125.28a16.8 16.8 0 0 0 23.616 0l23.616-23.456a16.48 16.48 0 0 0 0-23.456l-104.8-129.056a16.544 16.544 0 0 0-4.864-11.648l-23.616-23.456a16.8 16.8 0 0 0-23.616 0l-86.048 85.248a16.48 16.48 0 0 0 0 23.456l23.616 23.456zM432 96h160a16 16 0 0 0 16-16v-32a16 16 0 0 0-16-16h-160a16 16 0 0 0-16 16v32a16 16 0 0 0 16 16z"  horiz-adv-x="1024" />

    
    <glyph glyph-name="todo-will-come" unicode="&#59189;" d="M820.224 192.86400000000003c7.36-20.32 11.776-42.016 11.776-64.864a192 192 0 0 0-192-192c-89.696 0-164.352 61.696-185.344 144.864-0.352 0.352-0.928 0.256-1.248 0.64l-64.128 75.168A270.912 270.912 0 0 0 288 368a272 272 0 0 0 544 0c0-17.888-2.336-35.136-5.696-52A15.744 15.744 0 0 0 832 304v-96a15.808 15.808 0 0 0-11.776-15.136zM768 208V352h-1.088c0.48 5.312 1.088 10.56 1.088 16a208 208 0 1 1-416 0c0-44.288 14.016-85.184 37.664-118.848 3.136-0.768 6.336-1.728 8.576-4.384l95.712-112.16 18.688 1.856c-0.096-2.176-0.64-4.256-0.64-6.464a128 128 0 0 1 256 0c0 10.944-1.792 21.408-4.384 31.552L768 160v48zM768 608a64 64 0 1 0-0.032 127.968A64 64 0 0 0 768 608z m-160 64a64 64 0 1 0-0.032 127.968A64 64 0 0 0 608 672z m-192 0a64 64 0 1 0-0.032 127.968A64 64 0 0 0 416 672z m-192-160a96 96 0 1 0 0 192 96 96 0 0 0 0-192z m0 128a32 32 0 1 1 0-64 32 32 0 0 1 0 64z"  horiz-adv-x="1024" />

    
    <glyph glyph-name="todo-aprove-chg-clas" unicode="&#59190;" d="M653.248 288H896a32 32 0 0 0 0-64H576a32 32 0 0 0-29.984 43.2L544 269.28l158.4 158.4 45.248-45.248-94.4-94.4z m271.392-174.272l0.96-0.928-3.936-3.936a32.192 32.192 0 0 0-6.528-6.528l-147.936-147.936-45.248 45.28L818.24 96H576a32 32 0 0 0 0 64h320a32 32 0 0 0 28.64-46.272zM832 288v224h-64V768H192v-704h256v-64H192a64 64 0 0 0-64 64V768a64 64 0 0 0 64 64h576a64 64 0 0 0 64-64v-480zM288 672h384a32 32 0 0 0 0-64H288a32 32 0 1 0 0 64z m0-128h192a32 32 0 0 0 0-64H288a32 32 0 0 0 0 64z m0-128h128a32 32 0 0 0 0-64H288a32 32 0 0 0 0 64z"  horiz-adv-x="1024" />

    
    <glyph glyph-name="notice" unicode="&#59191;" d="M230.613333 110.33600000000001c-5.632-8.405333-11.392-16.768-17.28-25.002667h810.666667a997.162667 997.162667 0 0 0-17.28 25.002667c2.944 6.058667 4.608 12.928 4.608 20.181333 0 24.96-19.541333 45.184-43.648 45.184h-1.066667a1006.592 1006.592 0 0 0-86.4 202.965334c0.128 3.413333 0.213333 6.912 0.213334 10.368V509.44A256.085333 256.085333 0 0 1 682.666667 758.826667V789.333333a64 64 0 0 1-128 0v-30.506666a256.085333 256.085333 0 0 1-197.76-249.344v-120.448c0-3.456 0.085333-6.912 0.213333-10.368a1006.592 1006.592 0 0 0-86.4-203.008H269.653333c-24.106667 0-43.648-20.181333-43.648-45.141334 0-7.253333 1.664-14.08 4.608-20.181333zM469.333333 42.66666699999996c0-70.698667 58.581333-128 130.901334-128 72.277333 0 130.858667 57.301333 130.858666 128H469.333333z"  horiz-adv-x="1194" />

    
    <glyph glyph-name="student-notice" unicode="&#59192;" d="M488.533333 734.634667V759.04L217.642667 600.3199999999999A85.333333 85.333333 0 0 1 85.333333 529.066667v-290.090667a85.333333 85.333333 0 0 1 132.352-71.253333l270.805334-158.762667v24.448a64 64 0 0 1 120.234666 30.634667v640a64 64 0 0 1-120.234666 30.634666z m267.392-551.082667A42.666667 42.666667 0 1 0 725.333333 256v7.253333a128.042667 128.042667 0 0 1 0 241.493334V512a42.666667 42.666667 0 1 0 30.592 72.448 213.418667 213.418667 0 0 0 0-400.896zM853.333333 128v26.88a298.24 298.24 0 0 1 124.458667 242.645333A298.24 298.24 0 0 1 853.333333 640.1279999999999v13.397333a42.666667 42.666667 0 0 0 0 85.333334v0.938666l1.962667-1.024a42.666667 42.666667 0 0 0 34.218667-19.968 383.658667 383.658667 0 0 0 173.653333-321.28 383.573333 383.573333 0 0 0-167.466667-317.141333A42.666667 42.666667 0 1 0 853.333333 128z"  horiz-adv-x="1194" />

    
    <glyph glyph-name="big-schedule-form" unicode="&#59193;" d="M853.333333 682.666667h85.333334a85.333333 85.333333 0 0 0 85.333333-85.333334v-512a85.333333 85.333333 0 0 0-85.333333-85.333333H256a85.333333 85.333333 0 0 0-85.333333 85.333333V597.333333a85.333333 85.333333 0 0 0 85.333333 85.333334h85.333333v-64A64 64 0 0 1 405.333333 554.666667h42.666667A64 64 0 0 1 512 618.666667V682.666667h170.666667v-64A64 64 0 0 1 746.666667 554.666667h42.666666A64 64 0 0 1 853.333333 618.666667V682.666667zM384 469.333333a42.666667 42.666667 0 1 1 0-85.333333 42.666667 42.666667 0 0 1 0 85.333333z m0-213.333333a42.666667 42.666667 0 1 1 0-85.333333 42.666667 42.666667 0 0 1 0 85.333333z m213.333333 213.333333a42.666667 42.666667 0 1 1 0-85.333333 42.666667 42.666667 0 0 1 0 85.333333z m0-213.333333a42.666667 42.666667 0 1 1 0-85.333333 42.666667 42.666667 0 0 1 0 85.333333z m213.333334 213.333333a42.666667 42.666667 0 1 1 0-85.333333 42.666667 42.666667 0 0 1 0 85.333333z m0-213.333333a42.666667 42.666667 0 1 1 0-85.333333 42.666667 42.666667 0 0 1 0 85.333333zM426.666667 810.666667a42.666667 42.666667 0 0 0 42.666666-42.666667v-128a42.666667 42.666667 0 0 0-85.333333 0V768a42.666667 42.666667 0 0 0 42.666667 42.666667z m341.333333 0a42.666667 42.666667 0 0 0 42.666667-42.666667v-128a42.666667 42.666667 0 0 0-85.333334 0V768a42.666667 42.666667 0 0 0 42.666667 42.666667z"  horiz-adv-x="1194" />

    
    <glyph glyph-name="todo-today-follow-co" unicode="&#42810;" d="M604.558129 725.548582C741.85193 986.1741030000001 1210.047063 961.042357 1210.047063 542.645314 1210.047063 160.54968399999996 605.488934-128 605.488934-128S0 160.54968399999996 0 540.318301c0 417.000834 456.094662 451.906038 604.558129 185.230281z m0-142.413231C405.365766 926.602556 86.564905 850.741913 86.564905 514.2557489999999c0-261.556327 518.924029-549.640608 518.924029-549.640608s517.993223 280.172435 517.993224 551.502219c0 351.379051-370.460562 397.45392-518.924029 67.017991zM848.894555 383.942988h99.596181c-71.672018-172.199005-284.36106-252.713675-250.386661-236.42458V253.630228c-79.118462-52.590507 107.97343 21.408525 150.79048 130.31276z"  horiz-adv-x="1210" />

    
    <glyph glyph-name="bind-link" unicode="&#42546;" d="M723.573198 351.288136l51.173426 51.173426c61.92529-21.639827 133.581697-7.689624 183.05388 41.850608l82.068022 81.999972a176.589152 176.589152 0 1 1-249.742654 249.742654l-81.999972-81.999972c-30.622396-30.622396-47.634839-69.682964-51.037327-109.628179l-2.313692-2.245642-61.244793-61.244792A247.020663 247.020663 0 0 0 660.763261 746.657296l76.896239 76.828189a247.224812 247.224812 0 1 0 349.571665-349.639715l-76.896239-76.896239a247.360912 247.360912 0 0 0-286.761728-45.593346zM629.052068 256.69895599999995a247.088713 247.088713 0 0 0-64.91948-235.452202l-76.896239-76.828189A247.224812 247.224812 0 1 0 137.732733 294.12632900000006l76.89624 76.89624a247.292862 247.292862 0 0 0 278.595755 49.540232l-25.790862-25.790863a101.870505 101.870505 0 0 1-20.006632-28.376754 176.589152 176.589152 0 0 1-180.331889-42.803305L185.095373 241.591907a176.589152 176.589152 0 1 1 249.742653-249.742653l81.999972 81.999972a176.248903 176.248903 0 0 1 50.697079 143.721113c18.237338 4.082986 35.590029 13.201655 49.744381 27.356007l11.84066 11.84066z m152.227334 303.91027l1.837344-1.837344a34.024885 34.024885 0 0 0 0-48.111187l-236.1327-236.132699a34.024885 34.024885 0 0 0-48.179237 0l-1.837343 1.769294a34.024885 34.024885 0 0 0 0 48.111187l236.200749 236.200749a34.024885 34.024885 0 0 0 48.111187 0z"  horiz-adv-x="1224" />

    
    <glyph glyph-name="records" unicode="&#42547;" d="M932.48 640H938.666667v-682.666667a85.333333 85.333333 0 0 0-85.333334-85.333333H170.666667a85.333333 85.333333 0 0 0-85.333334 85.333333V810.666667a85.333333 85.333333 0 0 0 85.333334 85.333333h512v-22.4c11.264 0.256 22.613333-3.882667 31.232-12.501333l211.2-211.2a42.666667 42.666667 0 0 0 7.381333-9.898667z m-118.186667 0L682.666667 771.669333V640h131.669333zM853.333333 554.666667h-170.666666a85.333333 85.333333 0 0 0-85.333334 85.333333V810.666667H170.666667v-853.333334h682.666666V554.666667zM298.666667 640h128a42.666667 42.666667 0 0 0 0-85.333333H298.666667a42.666667 42.666667 0 0 0 0 85.333333z m0-213.333333h213.333333a42.666667 42.666667 0 0 0 0-85.333334H298.666667a42.666667 42.666667 0 0 0 0 85.333334z m0-213.333334h341.333333a42.666667 42.666667 0 0 0 0-85.333333H298.666667a42.666667 42.666667 0 0 0 0 85.333333z"  horiz-adv-x="1024" />

    
    <glyph glyph-name="dowload-underline" unicode="&#42548;" d="M512 896a64 64 0 0 0 64-64v-640a64 64 0 0 0-128 0V832a64 64 0 0 0 64 64zM285.696 493.248l271.552-271.552a64 64 0 0 0-90.496-90.496L195.2 402.752a64 64 0 0 0 90.496 90.496z m543.04 0a64 64 0 0 0 0-90.496L557.248 131.20000000000005a64 64 0 0 0-90.496 90.496l271.552 271.552a64 64 0 0 0 90.496 0zM256 0h512a64 64 0 0 0 0-128H256a64 64 0 0 0 0 128z"  horiz-adv-x="1024" />

    


  </font>
</defs>
</svg>
